<svg width="139" height="22" viewBox="0 0 139 22" fill="none" xmlns="http://www.w3.org/2000/svg">
<path fill-rule="evenodd" clip-rule="evenodd" d="M1.73917 7.29904C1.73917 3.2344 5.0644 0.5 10.0129 0.5C12.8294 0.5 14.9291 1.17436 16.2518 2.49999C17.3155 3.57158 17.852 5.05425 17.8381 6.91105V7.142H12.1542L12.1403 6.92953C12.0386 5.61776 11.3125 5.00806 9.84644 5.00806C8.496 5.00806 7.7514 5.56695 7.7514 6.57849C7.7514 7.27595 8.13064 7.67317 10.3968 8.15354C14.5452 9.04499 17.3062 10.426 17.3062 14.2551C17.3062 18.6292 13.9949 21.359 8.66711 21.3867C5.61475 21.3867 3.21448 20.5969 1.72992 19.105C0.569092 17.9364 -0.0136324 16.3983 0.000242024 14.5323V14.3013H5.85986L5.86911 14.523C5.91536 15.5992 6.46109 16.8787 8.80586 16.8787C9.70769 16.8971 10.3552 16.6985 10.7575 16.3059C11.0581 16.0103 11.2108 15.5992 11.2108 15.0865C11.2108 14.3521 10.7899 13.8625 8.56537 13.4006C3.58909 12.3521 1.73917 10.6986 1.73917 7.29904ZM26.7824 8.17202L33.7335 0.777137H40.5412L31.2037 10.5184L37.2899 21.0542H30.5562L26.0239 12.9018L24.729 21.0542H18.4855L21.7275 0.777137H27.9663L26.7824 8.17202ZM53.7496 0.777137L49.5317 7.09581L47.224 0.777137H40.7169L45.5359 12.3429L44.1577 21.0542H50.429L51.7378 12.7078L60.0578 0.777137H53.7496ZM61.6349 0.777137H67.8784L65.4087 16.1858H72.9749L72.2026 21.0542H58.3929L61.6349 0.777137ZM82.8164 0.777137L73.0072 21.0542H79.0195L80.6752 17.3683H86.9649L87.4412 21.0542H93.8558L90.5861 0.777137H82.8164ZM86.396 12.9988H82.6176L85.5543 6.45378L86.396 12.9988ZM112.651 2.74018C113.631 3.72862 114.122 5.03577 114.108 6.63392L114.112 6.63854C114.112 9.71935 112.466 11.9549 109.58 12.8002L113.4 21.0542H107.06L103.781 13.9595H102.782L101.662 21.0542H95.4745L98.7165 0.777137H106.537C109.298 0.777137 111.356 1.43764 112.651 2.74018ZM105.779 5.5069H104.16L103.475 9.81173H105.224C107.12 9.81173 108.045 8.9988 108.045 7.32676C108.054 6.7771 107.915 6.35678 107.628 6.06579C107.263 5.69628 106.639 5.5069 105.779 5.5069ZM137.061 0.777137H130.253L123.302 8.17202L124.491 0.777137H118.247L115.005 21.0542H121.249L122.548 12.9018L127.016 20.9341L127.08 21.0542H133.809L127.728 10.5184L137.061 0.777137ZM133.851 19.1603C133.851 17.9641 134.762 17.0634 135.969 17.0634C137.209 17.0634 138.18 17.9825 138.18 19.1603C138.18 20.3381 137.185 21.2572 135.988 21.2572C134.79 21.2572 133.851 20.3565 133.851 19.1603Z" fill="black"/>
</svg>
